# xmcd
#
# Track frame offsets: 
#        150
#        16141
#        37554
#        53051
#        68410
#        87308
#        106264
#        122192
#        138963
#        156027
#        174311
#        191900
#
# Disc length: 2767 seconds
#
# Revision: 2
# Processed by: cddbd v1.5.2PL0 Copyright (c) Steve Scherf et al.
# Submitted via: ExactAudioCopy v0.99pb4
#
DISCID=8c0acd0c
DTITLE=Houston, Marques - Mr. Houston
DYEAR=2009
DGENRE=R&B
TTITLE0=Love Her featuring Jim Jones
TTITLE1=Body
TTITLE2=How I Do
TTITLE3=Express Lane
TTITLE4=Case Of You
TTITLE5=Stranger
TTITLE6=Say My Name
TTITLE7=Letter
TTITLE8=Sexy Young Girl
TTITLE9=Date
TTITLE10=Beautiful Woman
TTITLE11=Restaurant
EXTD=465.21 mB\n\ndouble checked\n\n2009\n\ncv
EXTT0=
EXTT1=
EXTT2=
EXTT3=
EXTT4=
EXTT5=
EXTT6=
EXTT7=
EXTT8=
EXTT9=
EXTT10=
EXTT11=
PLAYORDER=
